<?xml version="1.0" standalone="no"?>
<!DOCTYPE svg PUBLIC "-//W3C//DTD SVG 20010904//EN"
 "http://www.w3.org/TR/2001/REC-SVG-20010904/DTD/svg10.dtd">
<svg version="1.0" xmlns="http://www.w3.org/2000/svg"
 width="399.000000pt" height="399.000000pt" viewBox="0 0 399.000000 399.000000"
 preserveAspectRatio="xMidYMid meet">
<metadata>
Created by potrace 1.14, written by Peter Selinger 2001-2017
</metadata>
<g transform="translate(0.000000,399.000000) scale(0.100000,-0.100000)"
fill="#000000" stroke="none">
<path d="M0 3950 l0 -40 53 -1 c28 -1 68 -3 87 -4 19 -1 71 -3 114 -4 44 0 76
-4 73 -7 -8 -8 -283 -7 -308 1 -17 6 -18 -1 -17 -72 0 -59 4 -81 17 -90 15
-12 15 -14 -1 -27 -28 -21 -22 -50 12 -63 16 -6 30 -16 30 -22 0 -15 -47 -14
-53 2 -3 6 -6 -9 -6 -35 l-1 -48 53 -1 c47 -1 292 -1 360 1 31 0 33 11 13 78
-8 26 -24 85 -36 132 -12 47 -28 99 -35 115 -8 17 -16 51 -20 78 l-6 47 -49 0
c-40 0 -48 -3 -44 -15 4 -10 0 -15 -15 -15 -12 0 -24 7 -27 15 -9 21 -73 20
-89 -2 -13 -17 -14 -17 -32 0 -11 9 -32 17 -46 17 -25 0 -27 -3 -27 -40z m139
-134 c9 -10 9 -16 1 -21 -12 -7 -40 11 -40 26 0 14 26 10 39 -5z m125 8 c23
-9 20 -34 -4 -34 -13 0 -20 7 -20 20 0 22 1 23 24 14z m-105 -98 c9 -10 9 -16
1 -21 -12 -7 -40 11 -40 26 0 14 26 10 39 -5z m141 -1 c10 -12 10 -19 2 -27
-13 -13 -42 6 -42 28 0 19 24 18 40 -1z m-110 -100 c10 -12 9 -16 -4 -21 -18
-7 -49 13 -40 27 8 14 30 11 44 -6z m140 0 c10 -12 9 -16 -4 -21 -22 -8 -46 2
-46 21 0 19 34 20 50 0z"/>
<path d="M360 3977 c0 -7 9 -31 20 -52 11 -22 18 -45 16 -52 -3 -7 4 -43 15
-80 11 -37 29 -99 40 -138 31 -106 39 -120 79 -122 105 -6 308 -6 325 0 11 4
26 20 32 37 8 20 18 30 32 30 26 0 24 10 -26 149 -18 51 -33 95 -33 97 0 4
-143 19 -155 15 -19 -5 -115 10 -111 18 6 9 195 6 217 -4 26 -10 30 8 17 64
l-11 51 -49 0 c-45 0 -47 -1 -36 -20 14 -22 6 -35 -18 -26 -10 4 -14 13 -11
26 5 18 0 20 -56 20 -47 -1 -58 -3 -44 -11 23 -13 22 -29 -3 -29 -13 0 -20 7
-20 20 0 18 -6 20 -62 19 -35 -1 -55 -3 -45 -6 9 -2 17 -11 17 -19 0 -20 -18
-17 -32 6 -10 15 -24 20 -55 20 -28 0 -43 -4 -43 -13z m203 -90 c3 -9 -13 -12
-62 -11 -96 1 -106 7 -26 14 39 4 73 7 76 8 4 1 9 -4 12 -11z m-26 -83 c8 -20
-8 -36 -26 -25 -15 10 -8 41 9 41 6 0 13 -7 17 -16z m131 -18 c3 -13 -1 -17
-14 -14 -11 2 -20 11 -22 22 -3 13 1 17 14 14 11 -2 20 -11 22 -22z m132 -6
c0 -18 -22 -22 -37 -7 -21 21 -8 40 18 27 10 -6 19 -15 19 -20z m-246 -56 c18
-7 21 -30 6 -39 -13 -8 -40 13 -40 31 0 15 10 17 34 8z m146 -30 c0 -8 -9 -14
-20 -14 -19 0 -28 28 -13 43 9 9 33 -12 33 -29z m122 -16 c-10 -10 -16 -8 -30
5 -15 16 -15 19 -2 27 21 13 49 -15 32 -32z m-221 -54 c14 -17 3 -34 -21 -34
-17 0 -30 18 -30 45 0 16 34 9 51 -11z m127 -14 c10 -17 10 -21 -4 -27 -19 -7
-49 20 -40 36 11 17 30 13 44 -9z m120 8 c18 -18 14 -38 -7 -38 -23 0 -35 15
-27 35 7 18 18 19 34 3z"/>
<path d="M850 3979 c0 -6 12 -33 26 -58 23 -43 29 -48 62 -49 43 -2 220 -11
310 -16 l64 -3 -5 31 c-3 17 -11 48 -19 69 l-13 37 -212 0 c-150 0 -213 -3
-213 -11z m125 -49 c-8 -13 -35 -1 -35 15 0 7 6 15 13 18 14 5 31 -19 22 -33z
m230 20 c-3 -5 -1 -11 5 -15 5 -3 10 -10 10 -16 0 -12 -27 -12 -35 1 -9 14 4
51 16 44 5 -3 7 -9 4 -14z m-105 -10 c0 -13 -7 -20 -20 -20 -19 0 -27 20 -13
33 13 14 33 6 33 -13z"/>
<path d="M1315 3967 c10 -36 37 -91 51 -104 15 -16 141 -25 150 -12 4 6 11 6
19 -1 12 -10 86 -8 173 6 38 6 39 12 10 81 -20 48 -25 53 -53 53 -17 0 -36 -5
-43 -12 -9 -9 -15 -9 -24 0 -15 15 -74 16 -83 2 -4 -7 -11 -8 -18 -1 -7 5 -52
9 -100 9 -85 0 -88 -1 -82 -21z m233 -40 c13 -15 -1 -42 -17 -33 -13 8 -15 46
-2 46 5 0 13 -6 19 -13z m-108 -12 c0 -17 -2 -18 -24 -9 -23 9 -20 24 4 24 11
0 20 -7 20 -15z m220 -5 c0 -11 -7 -20 -15 -20 -8 0 -15 9 -15 20 0 11 7 20
15 20 8 0 15 -9 15 -20z"/>
<path d="M1726 3975 c4 -8 13 -15 21 -15 12 0 14 -7 10 -30 -4 -16 -3 -31 1
-31 4 -1 17 -3 29 -4 12 -1 28 -5 37 -8 10 -4 16 -1 16 9 0 9 6 14 13 11 6 -2
11 -13 10 -24 -2 -14 9 -25 35 -38 20 -11 44 -20 53 -21 9 0 21 -4 28 -8 6 -4
11 -2 11 4 0 7 5 6 14 -2 16 -15 11 -29 -8 -22 -8 3 -17 1 -20 -5 -7 -11 43
-40 59 -35 6 2 16 -8 22 -23 7 -16 28 -40 48 -56 30 -24 37 -26 55 -15 18 11
23 10 35 -6 10 -13 11 -23 5 -31 -10 -12 5 -35 23 -35 4 0 20 -13 34 -30 25
-31 43 -38 43 -19 0 6 -25 64 -56 128 l-56 118 -46 2 c-41 2 -78 5 -105 10 -5
0 -5 6 -1 12 9 16 113 6 126 -12 20 -29 -4 47 -37 119 l-35 72 -75 0 c-57 0
-75 -3 -75 -14 0 -8 -7 -16 -15 -20 -10 -4 -15 1 -15 14 0 17 -7 20 -40 20
-31 0 -38 -3 -34 -15 4 -9 0 -15 -10 -15 -9 0 -16 7 -16 15 0 11 -12 15 -45
15 -35 0 -43 -3 -39 -15z m307 -9 c3 -8 3 -17 0 -20 -7 -7 -33 13 -33 25 0 15
27 10 33 -5z m-53 -81 c0 -8 -9 -15 -20 -15 -11 0 -20 7 -20 15 0 8 9 15 20
15 11 0 20 -7 20 -15z m97 0 c3 -9 3 -19 -1 -22 -8 -9 -37 18 -30 28 8 14 24
11 31 -6z m73 -144 c0 -5 3 -16 6 -24 4 -12 0 -14 -15 -10 -21 5 -28 23 -14
36 9 10 23 9 23 -2z"/>
<path d="M2152 3968 c7 -13 19 -30 26 -39 7 -9 14 -26 15 -37 0 -11 6 -20 11
-19 6 1 12 -8 14 -20 2 -13 10 -23 18 -23 8 0 14 -7 14 -16 0 -9 8 -14 18 -13
30 3 52 -1 52 -9 0 -4 -14 -9 -32 -10 -18 -2 -33 -4 -35 -6 -2 -1 8 -26 22
-54 14 -29 25 -56 25 -62 0 -5 5 -10 10 -10 6 0 10 -6 10 -12 0 -7 14 -41 31
-75 25 -49 37 -64 62 -72 58 -17 77 -19 83 -10 3 5 11 6 17 2 21 -13 147 -15
147 -2 0 8 4 8 14 0 21 -18 59 4 51 29 -3 10 -33 69 -66 131 -64 119 -93 158
-103 136 -3 -7 -3 -1 0 13 5 25 -37 133 -57 146 -6 3 -14 17 -19 30 l-10 24
-165 0 -165 0 12 -22z m88 -18 c0 -5 -7 -10 -15 -10 -8 0 -15 5 -15 10 0 6 7
10 15 10 8 0 15 -4 15 -10z m85 -10 c-3 -5 -11 -10 -16 -10 -6 0 -7 5 -4 10 3
6 11 10 16 10 6 0 7 -4 4 -10z m110 0 c3 -5 -3 -10 -15 -10 -12 0 -18 5 -15
10 3 6 10 10 15 10 5 0 12 -4 15 -10z m-161 -66 c4 -9 4 -19 1 -22 -7 -8 -35
19 -29 29 8 14 21 11 28 -7z m194 -25 c-18 -11 -32 6 -24 28 7 17 8 17 22 -1
11 -16 11 -21 2 -27z m-93 20 c10 -15 -1 -23 -20 -15 -9 3 -13 10 -10 16 8 13
22 13 30 -1z m74 -84 c2 -3 -21 -5 -53 -5 -31 0 -55 4 -52 9 6 9 95 5 105 -4z
m78 -1 c-3 -3 -12 -4 -19 -1 -8 3 -5 6 6 6 11 1 17 -2 13 -5z m-169 -71 c2 -8
-5 -13 -17 -13 -12 0 -21 6 -21 16 0 18 31 15 38 -3z m102 -9 c0 -18 -26 -18
-33 0 -3 8 -3 16 0 19 9 10 33 -5 33 -19z m93 11 c8 -18 -11 -31 -25 -17 -11
11 -3 32 12 32 4 0 10 -7 13 -15z m-153 -86 c0 -5 -9 -9 -20 -9 -19 0 -27 20
-13 33 7 8 33 -11 33 -24z m100 1 c0 -22 -7 -25 -29 -11 -16 10 -6 31 15 31 8
0 14 -9 14 -20z m98 -7 c2 -8 -5 -13 -17 -13 -12 0 -21 6 -21 16 0 18 31 15
38 -3z m-164 -69 c4 -9 4 -19 2 -22 -10 -9 -36 8 -36 23 0 20 26 19 34 -1z
m106 -4 c0 -11 -7 -20 -15 -20 -8 0 -15 9 -15 20 0 11 7 20 15 20 8 0 15 -9
15 -20z m100 -5 c0 -8 -6 -15 -14 -15 -17 0 -28 14 -19 24 12 12 33 6 33 -9z"/>
<path d="M2516 3973 c-9 -22 42 -119 71 -134 12 -7 19 -18 16 -26 -3 -7 -2
-13 3 -11 5 2 19 -4 32 -13 19 -14 20 -18 8 -28 -13 -11 -11 -50 4 -61 9 -7
50 -89 50 -101 0 -5 11 -22 24 -36 14 -15 22 -31 19 -35 -3 -5 4 -12 16 -15
12 -3 21 -12 21 -19 0 -9 11 -14 29 -14 16 0 31 -6 34 -12 3 -10 9 -10 25 -1
12 7 23 9 27 3 8 -12 -15 -24 -47 -25 -38 -1 -42 -9 -24 -46 9 -17 13 -35 10
-40 -3 -5 -1 -9 5 -9 5 0 13 -10 17 -22 4 -13 16 -29 26 -37 14 -9 16 -16 8
-21 -7 -4 1 -19 25 -43 37 -37 69 -49 59 -23 -7 18 32 41 41 25 4 -5 4 -21 1
-34 -5 -21 -2 -25 31 -34 93 -26 113 -28 154 -21 24 5 54 6 67 3 17 -4 22 -1
22 13 0 20 -2 24 -63 137 -20 37 -37 72 -37 78 0 16 23 -12 49 -61 13 -25 35
-58 48 -73 13 -16 23 -36 23 -46 0 -27 68 -59 117 -55 23 2 45 -1 48 -7 4 -6
12 -3 21 8 7 10 14 13 14 7 0 -6 6 -11 13 -12 101 -7 137 -6 137 5 0 20 37 25
68 9 16 -8 32 -12 36 -9 3 4 6 -1 6 -10 0 -9 7 -17 15 -17 8 0 15 5 15 10 0 6
7 10 15 10 8 0 15 -5 15 -11 0 -6 11 -8 28 -5 15 3 33 2 40 -2 7 -5 -13 -10
-50 -12 -67 -3 -83 -3 -303 -2 -84 1 -144 -3 -150 -9 -16 -16 23 -39 67 -39
25 0 45 -7 58 -20 24 -24 40 -26 40 -5 0 8 4 15 9 15 5 0 14 -7 21 -15 10 -12
10 -15 -4 -15 -35 0 -10 -34 34 -45 24 -6 25 -8 22 -78 -1 -40 2 -78 7 -86 7
-10 30 -13 90 -12 126 3 145 9 118 39 -10 10 -17 24 -17 30 0 7 -4 12 -10 12
-5 0 -10 7 -10 15 0 8 3 15 6 15 10 0 34 -29 34 -42 1 -25 46 -57 86 -60 l39
-3 3 399 c2 310 -1 402 -10 414 -10 12 -10 16 0 19 23 8 14 34 -10 28 -27 -6
-35 -1 -66 39 -23 30 -30 76 -11 76 6 0 9 -7 5 -15 -6 -18 -5 -18 27 -6 22 9
24 7 19 -11 -4 -16 -2 -20 10 -15 9 3 21 0 27 -6 9 -9 11 23 9 128 l-3 140
-98 3 c-97 3 -158 -10 -110 -24 29 -8 37 -31 13 -39 -24 -8 -66 19 -73 46 -5
20 -12 21 -119 18 -85 -3 -116 -7 -124 -18 -10 -13 -15 -13 -37 2 -23 15 -60
17 -302 17 -213 0 -275 -3 -275 -12 0 -9 -2 -10 -8 -2 -5 8 -60 12 -168 13
-143 1 -163 -1 -168 -16z m999 -63 c-3 -5 -12 -10 -18 -10 -7 0 -6 4 3 10 19
12 23 12 15 0z m-361 -15 c-4 -8 -8 -15 -10 -15 -2 0 -4 7 -4 15 0 8 4 15 10
15 5 0 7 -7 4 -15z m664 -15 c22 -21 29 -36 24 -52 -4 -16 -2 -20 9 -16 51 21
50 21 40 -3 -9 -27 -51 -39 -51 -15 0 8 -11 27 -23 43 -21 24 -42 73 -32 73 2
0 17 -13 33 -30z m42 9 c-7 -11 -14 -18 -17 -15 -8 8 5 36 17 36 7 0 7 -6 0
-21z m-855 -59 c3 -5 1 -10 -4 -10 -6 0 -11 5 -11 10 0 6 2 10 4 10 3 0 8 -4
11 -10z m565 -10 c0 -5 -4 -10 -10 -10 -5 0 -10 5 -10 10 0 6 5 10 10 10 6 0
10 -4 10 -10z m-603 -24 c11 -13 28 -25 39 -28 31 -6 22 -30 -13 -34 -18 -2
-33 0 -33 5 0 5 -8 11 -18 13 -15 4 -18 12 -14 37 5 37 14 39 39 7z m463 -12
c0 -8 -4 -12 -10 -9 -5 3 -10 13 -10 21 0 8 5 12 10 9 6 -3 10 -13 10 -21z
m-115 -30 c11 1 26 6 33 10 7 4 12 3 12 -1 0 -5 12 -14 28 -20 l27 -10 -30 -7
c-53 -13 -57 -16 -51 -31 3 -8 1 -15 -4 -15 -6 0 -10 7 -10 15 0 8 -4 15 -10
15 -12 0 -50 77 -41 85 3 4 10 -4 15 -18 6 -18 16 -25 31 -23z m200 18 c-3 -3
-11 0 -18 7 -9 10 -8 11 6 5 10 -3 15 -9 12 -12z m-607 -10 c2 -7 -5 -12 -17
-12 -20 0 -35 13 -25 23 9 9 38 1 42 -11z m742 -2 c-19 -13 -30 -13 -30 0 0 6
10 10 23 10 18 0 19 -2 7 -10z m-540 -10 c12 -8 9 -10 -13 -10 -16 0 -26 4
-22 10 8 12 16 12 35 0z m547 -14 c0 -1 3 -10 5 -21 2 -12 -3 -21 -14 -23 -11
-2 -18 3 -18 12 0 9 -7 16 -15 16 -8 0 -15 7 -15 15 0 12 7 14 28 9 15 -4 28
-7 29 -8z m-913 -31 c3 -9 0 -15 -9 -15 -8 0 -15 7 -15 15 0 8 4 15 9 15 5 0
11 -7 15 -15z m266 -5 c0 -11 -2 -20 -5 -20 -2 0 -9 9 -15 20 -9 16 -8 20 5
20 8 0 15 -9 15 -20z m-175 -20 c-5 -8 -11 -8 -17 -2 -6 6 -7 16 -3 22 5 8 11
8 17 2 6 -6 7 -16 3 -22z m105 -1 c0 -12 -27 -11 -35 1 -11 17 5 32 21 19 8
-6 14 -15 14 -20z m250 -10 c0 -6 -4 -7 -10 -4 -5 3 -10 11 -10 16 0 6 5 7 10
4 6 -3 10 -11 10 -16z m86 -7 c-8 -9 -18 -13 -22 -10 -8 9 19 37 29 31 5 -3 2
-12 -7 -21z m87 -6 c-7 -12 -10 -12 -21 0 -11 12 -10 14 3 14 8 0 15 6 16 13
0 9 2 9 5 0 3 -7 2 -19 -3 -27z m74 -1 c-4 -8 -11 -15 -17 -15 -14 0 -13 27 3
33 16 6 21 1 14 -18z m-403 0 c4 -13 2 -14 -14 -5 -23 13 -26 20 -6 20 8 0 16
-7 20 -15z m-244 -36 c0 -5 -7 -9 -15 -9 -15 0 -20 12 -9 23 8 8 24 -1 24 -14z
m87 -16 c-3 -3 -11 -2 -17 2 -8 5 -7 11 2 22 12 15 13 14 16 -1 2 -10 1 -20
-1 -23z m377 2 c-9 -14 -20 -22 -25 -19 -16 9 -10 42 9 47 28 6 33 -2 16 -28z
m-182 5 c17 -26 33 -25 53 3 13 19 17 20 25 7 12 -18 7 -36 -9 -32 -6 1 -21
-7 -33 -18 -12 -11 -24 -20 -27 -20 -7 0 -41 59 -41 71 0 16 19 10 32 -11z
m341 -27 c-5 -14 -9 -13 -25 7 -25 31 -22 43 6 24 16 -10 23 -21 19 -31z
m-434 23 c10 -12 8 -13 -8 -9 -12 3 -21 9 -21 14 0 14 16 11 29 -5z m349 -13
c-5 -25 -28 -28 -28 -4 0 12 6 21 16 21 9 0 14 -7 12 -17z m157 -13 c3 -5 1
-10 -4 -10 -6 0 -11 5 -11 10 0 6 2 10 4 10 3 0 8 -4 11 -10z m-455 -31 c11
-8 12 -12 2 -16 -6 -2 -10 -9 -6 -14 8 -13 -20 -11 -33 2 -13 13 -6 39 11 39
6 0 18 -5 26 -11z m177 5 c-3 -3 -12 -4 -19 -1 -8 3 -5 6 6 6 11 1 17 -2 13
-5z m-369 -16 c-7 -19 -38 -22 -38 -4 0 10 9 16 21 16 12 0 19 -5 17 -12z m90
-5 c6 -19 -25 -16 -32 3 -4 11 -1 14 11 12 9 -2 18 -9 21 -15z m202 -3 c13 -9
13 -10 0 -10 -10 0 -3 -11 18 -31 19 -17 39 -28 47 -25 23 8 18 -27 -5 -42
-17 -10 -25 -10 -45 5 -13 10 -25 26 -25 36 0 9 -4 17 -9 17 -10 0 -22 40 -15
52 7 10 15 10 34 -2z m78 -8 c3 -9 -2 -13 -14 -10 -9 1 -19 9 -22 16 -3 9 2
13 14 10 9 -1 19 -9 22 -16z m159 -4 c-3 -8 -6 -5 -6 6 -1 11 2 17 5 13 3 -3
4 -12 1 -19z m-87 2 c0 -5 -4 -10 -10 -10 -5 0 -10 5 -10 10 0 6 5 10 10 10 6
0 10 -4 10 -10z m176 -17 c-7 -7 -26 7 -26 19 0 6 6 6 15 -2 9 -7 13 -15 11
-17z m78 12 c3 -8 1 -15 -4 -15 -6 0 -10 7 -10 15 0 8 2 15 4 15 2 0 6 -7 10
-15z m309 -42 c-3 -7 0 -13 6 -13 6 0 11 -7 11 -15 0 -8 7 -15 15 -15 8 0 15
-4 15 -9 0 -17 -39 -23 -74 -11 -27 9 -33 15 -29 31 4 15 11 19 28 15 20 -5
22 -3 19 27 -3 22 -1 27 5 18 5 -8 7 -20 4 -28z m-803 -4 c0 -5 9 -9 21 -9 11
0 18 -4 15 -9 -8 -12 -94 -13 -101 -1 -4 6 6 10 20 10 20 0 26 4 22 14 -4 10
-1 13 9 9 7 -3 14 -9 14 -14z m498 0 c12 -5 25 -16 28 -24 8 -19 34 -20 34 0
0 8 5 15 11 15 6 0 9 -6 6 -14 -4 -9 1 -17 11 -20 13 -4 12 -4 -3 -4 -11 1
-44 -2 -73 -6 -44 -7 -57 -5 -72 9 -10 9 -24 14 -29 10 -14 -8 -10 37 4 47 10
7 41 2 83 -13z m-578 -1 c0 -7 -11 -14 -25 -14 -31 -2 -33 13 -2 19 12 2 23 5
25 6 1 0 2 -5 2 -11z m384 -23 c-4 -8 -10 -12 -15 -9 -11 6 -2 24 11 24 5 0 7
-7 4 -15z m76 -5 c0 -5 -4 -10 -9 -10 -6 0 -13 5 -16 10 -3 6 1 10 9 10 9 0
16 -4 16 -10z m-497 -70 c-6 -24 -16 -25 -32 -6 -10 11 -8 16 6 24 23 13 32 7
26 -18z m91 -3 c-3 -9 -10 -17 -15 -17 -11 0 -12 34 -2 44 11 11 24 -9 17 -27z
m91 24 c-3 -5 -1 -12 5 -16 5 -3 10 -10 10 -16 0 -12 -27 -12 -35 1 -9 14 1
40 15 40 6 0 9 -4 5 -9z m262 -33 c-3 -7 -5 -2 -5 12 0 14 2 19 5 13 2 -7 2
-19 0 -25z m-77 2 c0 -5 -2 -10 -4 -10 -3 0 -8 5 -11 10 -3 6 -1 10 4 10 6 0
11 -4 11 -10z m270 0 c0 -5 -4 -10 -10 -10 -5 0 -10 5 -10 10 0 6 5 10 10 10
6 0 10 -4 10 -10z m390 -20 c0 -5 -5 -10 -11 -10 -5 0 -7 5 -4 10 3 6 8 10 11
10 2 0 4 -4 4 -10z m-980 -52 c0 -22 -28 -24 -36 -4 -8 20 18 48 28 32 4 -6 8
-19 8 -28z m95 2 c0 -7 -6 -15 -12 -17 -8 -3 -13 4 -13 17 0 13 5 20 13 18 6
-3 12 -11 12 -18z m95 0 c0 -23 -25 -27 -33 -6 -5 13 5 23 26 25 4 1 7 -8 7
-19z m183 0 c-3 -11 -12 -20 -19 -20 -16 0 -16 2 -8 24 9 24 33 20 27 -4z m87
-5 c0 -8 -4 -15 -10 -15 -5 0 -10 7 -10 15 0 8 5 15 10 15 6 0 10 -7 10 -15z
m90 -1 c-6 -6 -7 -14 -3 -18 4 -4 0 -4 -10 0 -23 9 -22 33 2 31 14 -1 17 -5
11 -13z m174 -3 c10 -16 -18 -30 -31 -16 -6 7 -9 16 -6 19 9 9 31 7 37 -3z
m-80 -16 c-4 -9 0 -15 10 -15 9 0 16 -7 16 -15 0 -16 -9 -19 -26 -7 -14 9 -24
38 -17 46 12 12 22 6 17 -9z m166 11 c0 -9 -30 -14 -35 -6 -4 6 3 10 14 10 12
0 21 -2 21 -4z m-662 -69 c2 -12 -3 -17 -17 -17 -12 0 -21 6 -21 13 0 31 32
34 38 4z m267 3 c18 -19 17 -20 -3 -20 -15 0 -22 6 -22 20 0 11 2 20 3 20 2 0
12 -9 22 -20z m-180 0 c3 -5 4 -14 0 -20 -8 -13 -35 -1 -35 16 0 16 26 19 35
4z m368 -5 c7 -16 -8 -29 -23 -20 -15 9 -12 35 4 35 8 0 16 -7 19 -15z m-93
-5 c0 -5 -7 -10 -16 -10 -8 0 -12 5 -9 10 3 6 10 10 16 10 5 0 9 -4 9 -10z
m270 -10 c0 -5 -9 -10 -20 -10 -11 0 -20 5 -20 10 0 6 9 10 20 10 11 0 20 -4
20 -10z m70 0 c8 -5 11 -10 5 -10 -5 0 -17 5 -25 10 -8 5 -10 10 -5 10 6 0 17
-5 25 -10z m-156 -15 c-4 -8 -8 -15 -10 -15 -2 0 -4 7 -4 15 0 8 4 15 10 15 5
0 7 -7 4 -15z m296 -66 c0 -5 -7 -9 -15 -9 -15 0 -20 12 -9 23 8 8 24 -1 24
-14z m-294 -75 c-9 -9 -20 -14 -23 -10 -4 3 2 13 13 20 25 18 31 12 10 -10z
m177 -15 c-8 -8 -13 -8 -17 0 -4 6 -2 11 4 11 6 0 8 6 4 13 -6 10 -4 10 7 0 9
-10 10 -16 2 -24z m82 11 c3 -5 1 -10 -4 -10 -6 0 -11 5 -11 10 0 6 2 10 4 10
3 0 8 -4 11 -10z m-155 -43 c0 -5 -4 -5 -10 -2 -5 3 -10 14 -10 23 0 15 2 15
10 2 5 -8 10 -19 10 -23z m-40 -49 c0 -5 -6 -8 -14 -8 -18 0 -29 27 -13 33 12
4 27 -10 27 -25z m80 16 c0 -9 -5 -14 -12 -12 -18 6 -21 28 -4 28 9 0 16 -7
16 -16z m80 -14 c0 -5 -7 -10 -16 -10 -8 0 -12 5 -9 10 3 6 10 10 16 10 5 0 9
-4 9 -10z m-196 -82 c-9 -31 -12 -34 -25 -21 -15 15 -4 43 16 43 12 0 15 -6 9
-22z m262 5 c-4 -26 -36 -29 -36 -4 0 14 6 21 19 21 13 0 18 -6 17 -17z m-166
-8 c0 -9 -9 -15 -25 -15 -24 0 -32 10 -18 23 12 13 43 7 43 -8z"/>
<path d="M900 3846 c0 -2 15 -50 34 -107 34 -100 36 -104 68 -111 18 -3 37 -3
43 2 5 4 29 11 53 15 23 4 42 12 42 19 0 23 26 49 40 41 18 -11 110 -13 110
-3 0 12 28 10 32 -2 5 -14 46 -1 53 18 3 8 2 18 -3 21 -5 3 -15 24 -24 46
l-16 40 -93 7 c-139 10 -339 18 -339 14z m138 -58 c18 -18 14 -38 -7 -38 -23
0 -35 15 -27 35 7 18 18 19 34 3z m116 -4 c25 -10 19 -34 -9 -34 -18 0 -25 5
-25 20 0 21 8 24 34 14z m116 -9 c7 -8 9 -22 6 -31 -5 -13 -9 -14 -21 -4 -16
13 -21 50 -6 50 5 0 14 -7 21 -15z m-192 -98 c3 -14 -1 -18 -20 -15 -12 2 -24
11 -26 21 -3 14 1 18 20 15 12 -2 24 -11 26 -21z"/>
<path d="M1803 3818 c-25 -26 -42 -108 -129 -622 -54 -317 -77 -406 -110 -406
-44 0 -240 33 -242 41 -2 5 -8 6 -14 3 -15 -10 -119 6 -112 17 3 6 -4 7 -20 3
-28 -7 -194 15 -201 27 -3 4 -14 5 -25 2 -10 -3 -52 2 -92 10 -40 9 -113 23
-163 32 -49 8 -112 20 -140 25 -98 17 -125 21 -125 16 0 -11 112 -66 122 -60
6 4 8 3 4 -4 -3 -6 3 -13 14 -17 11 -3 20 -11 20 -16 0 -5 5 -9 10 -9 6 0 39
-18 74 -40 35 -22 68 -40 73 -40 6 0 16 -7 23 -15 6 -8 15 -14 18 -13 10 3 73
-32 91 -49 7 -8 22 -12 32 -10 12 3 19 0 19 -9 0 -8 8 -18 17 -21 10 -4 43
-24 75 -45 31 -21 59 -38 62 -38 3 0 26 -15 52 -32 97 -69 197 -129 208 -125
6 2 20 -6 32 -18 12 -12 39 -32 59 -45 32 -20 40 -21 60 -10 20 11 27 11 40 0
9 -7 13 -20 10 -28 -3 -8 3 -21 15 -29 11 -8 20 -19 20 -25 0 -11 -48 -7 -85
6 -14 5 -11 0 10 -18 35 -30 65 -42 74 -30 3 5 60 10 126 12 88 2 115 0 103
-8 -10 -6 -55 -13 -100 -16 -114 -8 -109 -5 -92 -60 8 -26 14 -69 14 -96 0
-36 5 -53 20 -65 23 -20 26 -41 7 -49 -8 -3 -11 -18 -9 -45 3 -29 8 -39 18
-35 22 8 44 -4 44 -25 0 -20 -34 -27 -45 -9 -14 23 -20 6 -15 -47 4 -51 8 -58
28 -61 23 -4 434 36 440 42 2 2 -15 53 -38 112 -37 96 -70 192 -70 203 0 2 7
-2 15 -9 8 -6 40 -77 71 -157 l57 -146 56 7 c113 12 257 17 234 7 -25 -11
-158 -31 -211 -31 -63 0 -67 -9 -42 -79 20 -54 42 -76 52 -53 8 18 113 96 146
108 45 16 96 18 120 4 9 -6 44 -19 77 -29 79 -25 233 -90 315 -133 36 -19 81
-40 100 -48 19 -8 78 -34 130 -60 52 -25 111 -52 130 -60 34 -13 94 -41 330
-153 63 -29 133 -60 155 -68 22 -7 44 -17 50 -21 5 -4 23 -8 40 -8 17 0 36 -5
42 -11 7 -7 12 -6 16 5 4 11 1 16 -11 16 -9 1 -28 7 -42 15 -20 11 -21 14 -7
15 10 0 27 5 38 11 16 8 18 13 8 25 -14 17 -6 29 15 21 8 -3 12 -14 9 -25 -3
-12 2 -22 12 -26 15 -5 17 -2 11 26 -3 18 -10 34 -15 38 -4 3 -11 15 -15 28
-5 15 -15 22 -32 22 -13 0 -24 4 -24 8 0 18 -413 463 -473 510 -38 29 -13 -9
35 -56 29 -28 49 -54 45 -58 -8 -8 -83 60 -172 156 -36 38 -49 57 -33 47 15
-9 33 -17 40 -17 20 0 -54 55 -75 55 -20 1 -247 223 -247 242 0 7 -7 13 -15
13 -25 0 -17 31 22 79 30 37 197 213 309 325 36 36 228 249 252 280 12 16 24
27 25 25 2 -2 15 -23 30 -46 15 -24 28 -43 30 -43 1 0 4 11 5 25 1 20 -29 85
-54 113 -1 2 -29 -6 -61 -17 -33 -12 -68 -21 -79 -21 -11 0 -25 -5 -30 -10
-12 -12 -152 -43 -290 -65 -54 -8 -135 -24 -179 -35 -44 -10 -113 -24 -153
-31 -86 -15 -108 -32 -30 -24 l53 5 -65 -19 c-97 -29 -248 -62 -307 -68 -43
-4 -53 -2 -53 10 0 23 15 28 44 18 15 -6 42 -7 68 -2 24 5 33 9 21 10 -13 1
-33 11 -45 23 -14 14 -23 18 -26 10 -6 -18 -52 -15 -52 4 0 8 -11 32 -25 52
-14 20 -25 40 -25 44 0 4 -25 60 -56 125 -61 129 -136 292 -190 418 -19 44
-39 87 -44 95 -15 23 -60 116 -60 123 0 3 -16 40 -36 82 -28 59 -40 75 -57 75
-33 0 -48 14 -45 40 4 31 -14 35 -39 8z m-456 -1024 c-3 -3 -12 -4 -19 -1 -8
3 -5 6 6 6 11 1 17 -2 13 -5z m103 -14 c11 -7 6 -10 -22 -10 -20 0 -40 5 -43
10 -8 13 45 13 65 0z m1410 0 c-14 -4 -34 -8 -45 -8 -16 0 -15 2 5 8 14 4 34
8 45 8 16 0 15 -2 -5 -8z m-200 -91 c77 -17 97 -30 98 -61 1 -24 -3 -28 -25
-28 -22 0 -25 -4 -21 -25 4 -16 1 -25 -8 -25 -7 0 -17 -7 -22 -15 -7 -14 -11
-13 -32 5 -13 11 -27 20 -33 20 -5 0 -7 7 -3 15 3 8 1 15 -3 15 -5 0 -11 -5
-13 -12 -3 -7 -12 3 -21 21 -20 41 -21 42 -4 35 9 -3 13 3 12 18 -1 13 -8 22
-14 21 -15 -4 -14 14 2 20 19 8 38 7 87 -4z m-1196 -124 c4 -10 -1 -15 -14
-15 -11 0 -20 7 -20 15 0 8 6 15 14 15 8 0 16 -7 20 -15z m1253 -51 c-3 -3
-12 -4 -19 -1 -8 3 -5 6 6 6 11 1 17 -2 13 -5z m-1219 -67 c3 -14 -1 -18 -20
-15 -12 2 -24 11 -26 21 -3 14 1 18 20 15 12 -2 24 -11 26 -21z m125 8 c1 -5
-6 -11 -15 -13 -11 -2 -18 3 -18 13 0 17 30 18 33 0z m52 -115 c0 -19 -35 -26
-46 -8 -15 23 -10 29 19 26 16 -2 27 -9 27 -18z m1111 -95 c-6 -14 -20 -25
-30 -25 -11 0 -16 3 -13 6 3 4 2 15 -4 25 -8 16 -6 21 13 28 33 13 49 -3 34
-34z m2 -57 c-3 -7 -13 -15 -23 -16 -15 -4 -16 -2 -4 12 17 19 32 21 27 4z
m159 -4 c-3 -3 -12 -4 -19 -1 -8 3 -5 6 6 6 11 1 17 -2 13 -5z m-1192 -79 c0
-30 -39 -27 -43 3 -3 20 0 23 20 20 15 -2 23 -10 23 -23z m131 14 c11 -18 -13
-34 -31 -19 -8 7 -15 16 -15 21 0 13 38 11 46 -2z m677 -66 c32 -75 41 -103
29 -103 -9 0 -72 128 -72 148 0 28 19 8 43 -45z m123 16 c10 -17 -13 -36 -27
-22 -12 12 -4 33 11 33 5 0 12 -5 16 -11z m-238 -32 c2 -11 -3 -17 -17 -17
-23 0 -35 15 -26 31 10 15 39 6 43 -14z m-118 -18 c0 -15 -30 -23 -42 -11 -6
6 -8 18 -4 27 4 13 10 14 26 5 11 -6 20 -15 20 -21z m-130 -9 c0 -18 -22 -22
-37 -7 -21 21 -8 40 18 27 10 -6 19 -15 19 -20z m-272 -2 c18 -18 14 -38 -7
-38 -23 0 -35 15 -27 35 7 18 18 19 34 3z m-128 -13 c15 -17 5 -35 -20 -35
-22 0 -33 23 -17 39 15 15 22 14 37 -4z m697 -71 c3 -8 1 -20 -6 -27 -14 -14
-47 15 -37 32 10 16 36 13 43 -5z m-127 -9 c13 -16 6 -35 -14 -35 -22 0 -37
25 -24 38 16 16 23 15 38 -3z m-131 -4 c17 -11 7 -41 -13 -41 -19 0 -29 17
-22 35 6 17 15 18 35 6z m-251 -42 c2 -9 -4 -19 -12 -22 -19 -8 -51 17 -42 32
11 17 50 9 54 -10z m-143 -14 c0 -30 -39 -27 -43 3 -3 20 0 23 20 20 15 -2 23
-10 23 -23z m1675 -214 c105 -113 120 -147 24 -53 -82 80 -101 102 -83 102 8
0 34 -22 59 -49z"/>
<path d="M1384 3816 c-3 -9 1 -32 11 -52 14 -29 21 -35 38 -30 12 3 25 6 30 6
4 0 7 7 7 15 0 10 10 15 34 15 26 0 106 33 106 43 0 1 -24 3 -53 4 -28 2 -78
6 -109 9 -48 5 -59 3 -64 -10z"/>
<path d="M1235 3670 c3 -5 -1 -10 -10 -10 -8 0 -23 -4 -33 -9 -9 -5 -32 -16
-51 -24 -18 -8 -28 -17 -22 -21 6 -4 31 2 56 14 25 11 56 25 71 30 26 10 25
30 -2 30 -8 0 -12 -4 -9 -10z"/>
<path d="M1040 3583 c-8 -3 -25 -14 -36 -25 -12 -11 -28 -18 -35 -17 -14 2
-51 -11 -101 -37 -14 -8 -32 -14 -38 -14 -18 0 -110 -44 -110 -52 0 -5 -9 1
-20 12 -11 11 -20 24 -20 29 0 5 -14 11 -31 15 -40 8 -149 8 -149 0 0 -16 42
-170 49 -177 8 -8 71 49 71 65 0 5 -4 18 -10 28 -13 24 19 38 36 16 6 -9 14
-16 18 -16 4 0 14 -7 22 -15 9 -8 21 -15 27 -14 9 0 8 2 0 6 -27 10 -11 29 35
43 70 20 315 134 320 148 4 13 -3 14 -28 5z"/>
<path d="M2 3343 c2 -121 7 -185 16 -200 12 -22 18 -23 151 -23 l138 0 46 37
c32 26 43 41 36 49 -13 15 13 36 35 28 10 -4 35 2 57 12 38 16 40 20 34 48 -8
40 -8 38 -35 128 -27 89 -17 84 -195 87 -60 1 -150 4 -198 7 l-89 6 4 -179z
m88 92 c6 -8 9 -19 5 -25 -9 -14 -45 6 -45 25 0 19 24 19 40 0z m140 5 c21
-11 17 -40 -6 -40 -15 0 -37 34 -27 44 8 8 11 8 33 -4z m150 -9 c14 -27 13
-31 -9 -31 -22 0 -45 25 -36 40 10 16 33 12 45 -9z m-260 -112 c0 -25 -33 -22
-38 4 -2 12 3 17 17 17 15 0 21 -6 21 -21z m148 -2 c3 -14 -1 -18 -20 -15 -12
2 -24 11 -26 21 -3 14 1 18 20 15 12 -2 24 -11 26 -21z m142 8 c10 -12 9 -16
-4 -21 -22 -8 -46 2 -46 21 0 19 34 20 50 0z m-267 -100 c18 -13 18 -14 -1
-24 -16 -9 -24 -7 -36 5 -30 29 2 46 37 19z m157 -16 c0 -18 -31 -22 -48 -5
-15 14 -15 18 -3 26 16 10 51 -4 51 -21z"/>
<path d="M2420 3436 c0 -14 41 -56 55 -56 4 0 14 8 21 18 13 16 15 16 29 -3
14 -18 14 -21 -1 -32 -14 -10 -11 -15 23 -36 54 -34 79 -41 87 -22 8 23 46 19
46 -4 0 -11 6 -23 13 -28 20 -13 80 -33 100 -33 10 0 31 -7 47 -15 17 -9 30
-11 30 -7 0 5 -25 60 -56 121 l-56 111 -169 -1 c-128 0 -169 -3 -169 -13z
m210 -51 c0 -18 -5 -25 -20 -25 -21 0 -24 8 -14 34 10 25 34 19 34 -9z m100
-1 c0 -19 -5 -25 -17 -22 -10 2 -19 12 -21 22 -3 14 0 17 12 13 9 -4 16 -2 16
3 0 6 2 10 5 10 3 0 5 -12 5 -26z m40 -73 c0 -5 3 -16 6 -25 4 -11 0 -16 -14
-16 -20 0 -36 25 -26 41 7 12 34 12 34 0z"/>
<path d="M35 3091 c-3 -6 15 -102 40 -215 25 -113 45 -207 45 -210 0 -3 12 -6
28 -6 37 0 60 -15 37 -24 -9 -3 -25 -6 -36 -6 -15 0 -19 -7 -19 -34 0 -48 -17
-54 -34 -11 -14 32 -19 35 -55 35 l-41 0 0 -876 0 -877 47 7 c96 14 178 18
163 8 -19 -12 -151 -42 -184 -42 l-26 0 0 -261 c0 -169 4 -267 11 -281 8 -14
8 -23 0 -31 -6 -6 -11 -45 -11 -87 l0 -77 82 15 c186 33 483 94 489 100 3 4
-7 70 -22 147 -25 123 -50 305 -42 305 1 0 12 -18 23 -39 19 -38 55 -177 81
-313 7 -37 16 -73 20 -80 7 -11 68 -2 354 49 20 3 27 2 20 -5 -10 -10 -290
-82 -322 -82 -42 -1 -45 -11 -26 -108 l18 -92 368 0 c202 0 367 2 367 4 0 1
-4 16 -10 32 -14 42 -28 144 -20 144 4 0 20 -40 36 -90 l29 -90 62 0 c56 0 62
2 65 23 5 33 45 35 60 3 l11 -26 413 0 c383 0 412 1 419 18 6 16 7 16 19 0 12
-16 32 -18 161 -18 136 0 147 1 142 18 -20 62 -57 166 -60 169 -3 2 -17 -2
-31 -9 -21 -9 -32 -9 -47 0 -10 7 -28 12 -39 12 -30 0 -24 18 8 22 44 5 42 41
-5 69 -21 12 -92 77 -158 144 -66 68 -138 134 -160 148 -22 13 -67 51 -100 84
-33 32 -82 76 -110 98 -27 22 -118 99 -202 172 -121 105 -160 133 -190 138
-21 3 -67 17 -103 30 -36 13 -87 29 -115 35 -172 36 -333 78 -495 129 -102 33
-212 67 -245 76 -33 10 -78 23 -100 30 -22 8 -101 33 -175 56 -74 23 -154 54
-177 68 l-43 26 5 230 c16 804 25 1093 35 1199 5 49 7 93 5 97 -3 4 -14 5 -25
2 -21 -6 -29 20 -10 32 6 3 10 9 10 13 0 11 -228 14 -235 3z m149 -77 c19 -7
22 -44 4 -44 -23 0 -41 18 -35 34 7 18 9 18 31 10z m44 -136 c3 -13 -3 -18
-22 -18 -27 0 -41 14 -31 31 10 16 49 6 53 -13z m21 -102 c9 -10 8 -16 -4 -26
-21 -17 -51 6 -34 26 6 8 15 14 19 14 4 0 13 -6 19 -14z m-194 -1746 c3 -5 -1
-10 -10 -10 -9 0 -13 5 -10 10 3 6 8 10 10 10 2 0 7 -4 10 -10z m283 -306 c4
-26 -22 -38 -49 -24 -22 12 -24 21 -7 38 19 19 53 10 56 -14z m-193 -34 c0
-34 -50 -42 -60 -11 -9 29 3 43 33 39 21 -2 27 -8 27 -28z m219 -126 c20 -19
5 -54 -24 -54 -17 0 -40 26 -40 45 0 4 20 15 47 24 1 1 9 -6 17 -15z m-186
-51 c4 -28 -32 -50 -54 -32 -15 12 -19 41 -7 53 16 15 58 1 61 -21z m592 -73
c13 -8 13 -11 -2 -27 -17 -16 -19 -16 -35 0 -16 16 -16 19 -3 27 8 5 17 10 20
10 3 0 12 -5 20 -10z m-363 -66 c8 -22 -10 -49 -32 -49 -10 0 -22 7 -28 16
-15 24 -1 49 28 49 15 0 28 -7 32 -16z m-200 -41 c12 -18 12 -23 -2 -36 -11
-11 -22 -14 -38 -8 -28 10 -33 34 -11 55 19 20 32 17 51 -11z m1023 -188 c18
-21 5 -45 -24 -45 -25 0 -44 30 -31 50 9 15 41 12 55 -5z m-186 -31 c9 -8 16
-19 16 -23 0 -13 -24 -31 -42 -31 -23 0 -37 48 -17 61 19 12 25 11 43 -7z
m-181 -45 c15 -24 1 -49 -27 -49 -29 0 -44 33 -25 56 15 18 38 15 52 -7z m926
2 c17 -11 7 -41 -13 -41 -19 0 -29 17 -22 35 6 17 15 18 35 6z m867 -6 c4 -8
3 -22 0 -30 -8 -22 -46 -1 -46 25 0 24 38 28 46 5z"/>
<path d="M1230 3040 c35 -24 54 -31 30 -11 -14 11 -29 21 -35 21 -5 0 -3 -5 5
-10z"/>
<path d="M1 2818 l-1 -158 35 0 c19 0 35 4 35 8 0 11 -59 284 -64 297 -3 6 -5
-61 -5 -147z"/>
<path d="M1392 2934 c10 -10 20 -16 22 -13 3 3 -5 11 -17 18 -21 13 -21 12 -5
-5z"/>
<path d="M1475 2880 c3 -5 8 -10 11 -10 2 0 4 5 4 10 0 6 -5 10 -11 10 -5 0
-7 -4 -4 -10z"/>
<path d="M1555 2830 c3 -5 8 -10 11 -10 2 0 4 5 4 10 0 6 -5 10 -11 10 -5 0
-7 -4 -4 -10z"/>
<path d="M3668 2729 c-18 -10 -13 -43 6 -36 17 6 46 -12 46 -28 0 -8 -11 -17
-25 -21 -18 -4 -24 -11 -21 -23 3 -9 8 -29 12 -46 8 -40 27 -85 36 -85 8 0 38
-59 38 -75 0 -19 25 -25 108 -25 106 0 122 6 122 41 0 16 -7 32 -17 38 -17 10
-17 12 0 25 25 19 23 112 -3 146 -11 14 -20 31 -20 38 0 6 -4 12 -8 12 -5 0
-14 11 -20 25 -11 25 -14 25 -124 25 -62 0 -121 -5 -130 -11z m142 -54 c0 -9
-7 -18 -16 -22 -18 -7 -39 11 -30 26 11 17 46 13 46 -4z m80 0 c0 -8 -6 -15
-14 -15 -17 0 -28 14 -19 24 12 12 33 6 33 -9z m-26 -84 c3 -4 -1 -17 -9 -27
-11 -15 -16 -16 -26 -7 -10 10 -9 15 1 28 14 17 26 19 34 6z m79 -11 c-6 -22
-33 -28 -33 -7 0 17 10 27 26 27 7 0 10 -8 7 -20z m-168 -12 c-2 -27 -15 -32
-39 -15 -23 17 -13 37 18 37 17 0 22 -5 21 -22z m48 -98 c-6 -21 -28 -27 -38
-10 -9 15 3 30 25 30 13 0 17 -5 13 -20z m107 10 c0 -6 -7 -13 -15 -16 -20 -8
-48 3 -40 16 8 13 55 13 55 0z"/>
<path d="M3940 2726 c-9 -12 -7 -17 9 -28 12 -7 21 -21 21 -30 0 -10 4 -18 10
-18 5 0 9 20 8 45 0 36 -4 45 -18 45 -10 0 -23 -6 -30 -14z"/>
<path d="M3819 2344 c-13 -16 1 -58 38 -114 13 -19 23 -38 23 -43 0 -5 7 -15
15 -24 9 -8 19 -28 22 -44 3 -16 8 -29 12 -29 9 0 41 -55 41 -69 0 -28 -22 -6
-46 47 -15 31 -33 61 -41 65 -7 4 -13 14 -13 22 0 7 -6 20 -12 27 -12 12 -28
41 -75 131 -14 26 -50 40 -40 15 2 -7 10 -40 17 -73 7 -33 21 -67 31 -77 22
-19 24 -39 7 -56 -9 -9 -9 -15 0 -24 7 -7 12 -21 12 -31 0 -15 3 -17 14 -8 16
13 42 6 50 -14 7 -19 -9 -28 -34 -20 -23 7 -24 4 -10 -46 l10 -36 58 4 c72 5
85 9 78 28 -3 8 -1 15 4 15 6 0 10 33 10 75 0 58 -4 77 -15 81 -8 4 -15 12
-15 20 0 8 7 14 15 14 12 0 15 17 15 91 l0 90 -80 -2 c-53 -1 -84 -6 -91 -15z
m121 -77 c0 -9 -32 -17 -41 -11 -5 3 -5 13 1 25 10 17 13 18 25 5 8 -8 15 -17
15 -19z"/>
<path d="M1440 2296 c0 -2 7 -7 16 -10 8 -3 12 -2 9 4 -6 10 -25 14 -25 6z"/>
<path d="M3276 2051 c5 -5 20 -12 34 -15 24 -7 24 -6 6 8 -21 17 -57 23 -40 7z"/>
<path d="M3345 2020 c3 -5 13 -10 21 -10 8 0 12 5 9 10 -3 6 -13 10 -21 10 -8
0 -12 -4 -9 -10z"/>
<path d="M3888 1913 c-21 -2 -38 -8 -38 -13 0 -17 20 -62 35 -76 36 -37 9 -50
-52 -25 -26 10 -57 22 -68 26 -11 4 -5 -4 14 -19 19 -14 40 -26 47 -26 6 0 27
-14 45 -32 19 -17 42 -32 52 -33 23 -2 41 -20 33 -34 -9 -14 -43 -14 -51 -1
-12 20 -25 -1 -25 -41 0 -27 7 -46 22 -61 21 -21 21 -21 2 -37 -18 -15 -48
-90 -40 -99 2 -2 30 0 62 5 l59 8 3 53 c2 31 -1 52 -7 52 -6 0 -11 7 -11 15 0
8 5 15 10 15 6 0 10 41 10 104 0 101 -1 105 -22 108 -34 5 -37 38 -4 38 24 0
26 4 26 40 0 44 2 44 -102 33z"/>
<path d="M3300 1881 c0 -5 7 -12 16 -15 14 -5 15 -4 4 9 -14 17 -20 19 -20 6z"/>
<path d="M1985 1724 c-71 -8 -174 -19 -227 -25 l-98 -11 0 -67 c0 -37 7 -91
15 -121 8 -30 17 -62 19 -70 3 -8 18 -54 35 -102 17 -49 31 -94 31 -101 0 -7
6 -21 13 -31 12 -16 16 -14 61 25 39 35 45 44 32 51 -21 12 -21 48 1 48 9 0
24 -7 34 -16 16 -14 20 -12 57 28 103 112 122 136 122 152 0 9 8 16 18 16 10
0 35 18 56 39 l38 39 -21 63 c-26 73 -39 100 -49 98 -4 -1 -65 -8 -137 -15z
m93 -123 c3 -19 0 -22 -13 -17 -9 3 -21 6 -26 6 -5 0 -9 9 -9 21 0 31 44 22
48 -10z m-140 7 c16 -16 15 -35 -2 -41 -21 -8 -50 17 -43 37 7 19 28 21 45 4z
m-138 -23 c6 -8 9 -19 5 -25 -10 -16 -42 -12 -49 6 -12 32 21 47 44 19z m197
-121 c8 -22 -11 -37 -36 -29 -31 10 -28 45 4 45 14 0 28 -7 32 -16z m-144 -16
c6 -19 -3 -38 -18 -38 -18 0 -47 29 -40 41 9 13 53 11 58 -3z"/>
<path d="M3918 1413 c-50 -4 -61 -18 -35 -45 6 -7 18 -26 26 -43 7 -16 18 -39
24 -50 6 -11 17 -32 25 -47 7 -16 18 -28 23 -28 5 0 9 49 9 110 0 82 -3 110
-12 108 -7 -1 -34 -3 -60 -5z"/>
<path d="M1680 1318 c8 -30 8 -56 -2 -153 -2 -26 1 -30 23 -33 49 -6 53 17 19
122 -17 53 -35 96 -40 96 -5 0 -5 -14 0 -32z"/>
<path d="M3941 1110 c-13 -21 -41 -51 -62 -67 -22 -15 -38 -35 -38 -43 3 -37
-1 -42 -25 -36 -18 4 -47 -6 -103 -35 -71 -37 -99 -59 -75 -59 5 0 14 -11 20
-24 11 -24 11 -24 79 -11 37 7 110 23 161 35 l92 22 0 106 c-1 65 -6 116 -13
129 -12 21 -13 20 -36 -17z m-7 -80 c36 -13 35 -42 -1 -38 -20 2 -29 9 -31 26
-4 25 -3 26 32 12z"/>
<path d="M3845 1109 c-10 -14 -1 -21 19 -13 9 3 13 10 10 15 -7 12 -21 11 -29
-2z"/>
<path d="M3560 840 c-6 -11 -20 -25 -32 -31 -18 -10 -20 -9 -15 4 5 14 2 15
-21 5 -15 -7 -36 -20 -48 -30 -11 -10 -29 -18 -41 -18 -11 0 -31 -11 -44 -25
-67 -70 -83 -84 -107 -96 -15 -7 -43 -27 -62 -45 -52 -47 -209 -164 -234 -174
-11 -5 -32 -19 -46 -32 -14 -13 -37 -29 -51 -37 -46 -23 -139 -101 -139 -115
0 -8 -8 -17 -17 -19 -15 -4 -14 -5 3 -6 11 0 28 -9 36 -18 19 -22 74 -137 83
-176 l7 -27 103 0 c91 0 122 5 271 46 93 25 171 48 173 50 5 4 -37 122 -54
149 -6 11 -26 58 -45 105 -18 47 -44 108 -57 136 -12 28 -23 59 -23 68 0 35
25 8 47 -50 13 -32 30 -72 38 -89 7 -16 32 -75 55 -130 68 -165 73 -175 86
-175 21 0 441 116 452 125 3 3 -40 101 -117 267 -17 36 -31 69 -31 72 0 8 -81
180 -91 192 -6 8 -28 7 -76 -2 -95 -18 -100 -18 -79 5 10 11 38 22 65 26 64 9
76 17 62 44 -15 26 -37 27 -51 1z m54 -202 c18 -26 7 -43 -22 -34 -22 7 -36
32 -26 47 9 16 32 10 48 -13z m-344 -18 c0 -5 -4 -10 -10 -10 -5 0 -10 5 -10
10 0 6 5 10 10 10 6 0 10 -4 10 -10z m225 -10 c7 -21 0 -40 -15 -40 -14 0 -40
30 -40 46 0 22 48 18 55 -6z m-131 -26 c10 -26 7 -34 -12 -34 -21 0 -42 18
-42 37 0 19 47 16 54 -3z m-204 -54 c0 -5 -9 -14 -19 -20 -11 -5 -26 -16 -33
-24 -8 -7 -27 -20 -43 -29 -17 -8 -40 -25 -53 -37 -13 -12 -26 -20 -29 -17 -3
3 21 25 52 49 32 24 69 53 84 65 28 24 41 28 41 13z m518 -32 c20 -20 14 -38
-12 -38 -28 0 -40 14 -32 35 7 18 28 19 44 3z m-124 -34 c18 -18 20 -30 6 -39
-16 -10 -50 14 -50 35 0 24 23 26 44 4z m-126 -26 c18 -18 15 -48 -6 -48 -23
0 -42 19 -42 42 0 21 30 24 48 6z m-270 -60 c14 -14 16 -48 3 -48 -25 0 -41
14 -41 36 0 26 18 32 38 12z m-237 -28 c-25 -21 -46 -27 -36 -9 6 9 41 27 55
28 3 0 -6 -9 -19 -19z m831 -15 c6 -14 8 -28 5 -32 -13 -12 -57 16 -57 37 0
30 38 26 52 -5z m-738 9 c20 -8 21 -44 1 -44 -16 0 -38 34 -28 44 8 7 8 7 27
0z m-167 -39 c-15 -14 -34 -25 -41 -25 -7 0 -18 -11 -24 -25 -10 -22 -15 -24
-33 -15 -20 11 -19 13 18 32 21 11 49 29 62 39 35 28 51 22 18 -6z m771 13
c19 -19 15 -48 -8 -48 -21 0 -45 34 -35 50 8 14 28 13 43 -2z m-738 -34 c0 -8
-4 -12 -10 -9 -5 3 -10 10 -10 16 0 5 5 9 10 9 6 0 10 -7 10 -16z m608 4 c19
-19 15 -48 -8 -48 -25 0 -44 32 -28 48 15 15 21 15 36 0z m-258 -77 c16 -31
12 -41 -15 -41 -27 0 -41 20 -31 45 8 21 33 19 46 -4z m-148 -28 c26 -23 24
-55 -3 -51 -27 4 -44 30 -36 52 8 20 16 20 39 -1z m-134 -35 c7 -7 12 -20 12
-31 0 -14 -6 -18 -27 -15 -22 2 -29 9 -31 31 -3 21 1 27 15 27 11 0 24 -5 31
-12z"/>
<path d="M3920 841 c-66 -18 -137 -35 -198 -46 -26 -5 -32 -11 -26 -23 3 -10
14 -37 24 -62 16 -42 38 -93 80 -185 60 -131 80 -176 80 -181 0 -18 43 -94 53
-94 48 1 57 11 57 66 0 45 -3 54 -18 54 -22 0 -42 19 -42 38 0 11 8 13 29 9
l30 -6 0 224 c1 124 0 225 -2 224 -1 -1 -31 -9 -67 -18z m45 -117 c19 -19 7
-38 -21 -32 -23 4 -32 48 -10 48 8 0 22 -7 31 -16z m-121 -20 c17 -6 22 -39 8
-48 -13 -8 -52 23 -52 40 0 15 18 18 44 8z m77 -155 c8 -17 8 -23 -2 -30 -18
-11 -49 8 -49 31 0 27 36 26 51 -1z"/>
<path d="M3961 201 c-12 -8 -12 -14 -1 -43 22 -55 30 -55 30 0 0 53 -4 59 -29
43z"/>
<path d="M3760 144 c-63 -19 -142 -41 -175 -49 -33 -9 -68 -20 -77 -25 -10 -6
-27 -10 -38 -10 -16 0 -20 -7 -20 -30 l0 -30 128 0 c86 0 132 4 140 12 9 9 15
9 24 0 7 -7 32 -12 56 -12 42 0 44 1 38 26 -6 22 -4 25 16 22 15 -2 24 -11 26
-25 3 -20 9 -23 53 -23 27 0 49 4 49 9 0 15 -64 156 -75 163 -15 11 -19 10
-145 -28z"/>
<path d="M440 151 c-41 -10 -157 -34 -257 -52 l-183 -34 0 -33 0 -32 310 0
310 1 -4 22 c-3 12 -10 50 -17 85 l-13 62 -36 -1 c-19 0 -69 -9 -110 -18z"/>
<path d="M3320 20 l-55 -18 79 -1 c67 -1 77 1 72 15 -3 9 -6 18 -6 20 0 8 -36
2 -90 -16z"/>
</g>
</svg>
